<svg fill="#1A1A1A" xmlns="http://www.w3.org/2000/svg"  viewBox="0 0 24 24" width="24px" height="24px"><path d="M 5 3 C 3.896 3 3 3.895 3 5 L 3 19 C 3 20.105 3.896 21 5 21 L 19 21 C 20.104 21 21 20.105 21 19 L 21 5 C 21 3.895 20.104 3 19 3 L 5 3 z M 6.4003906 8 L 8.3847656 8 L 9.4902344 13.802734 L 10.585938 8 L 12.578125 8 L 13.126953 16 L 11.603516 16 L 11.251953 10.433594 L 10.197266 16 L 8.8027344 16 L 7.8300781 10.539062 L 7.3476562 16 L 5.8300781 16 L 6.4003906 8 z M 16.257812 10.59375 C 17.786812 10.59375 18.244141 12.080687 18.244141 12.929688 L 18.244141 13.685547 L 15.289062 13.685547 C 15.337063 14.036547 15.48075 14.317297 15.71875 14.529297 C 15.95675 14.740297 16.258094 14.871703 16.621094 14.845703 C 17.158094 14.806703 17.777375 14.484969 17.984375 14.292969 L 17.984375 15.615234 C 17.653375 15.809234 16.980391 16 16.525391 16 C 15.722391 16 15.069453 15.759344 14.564453 15.277344 C 14.060453 14.795344 13.806641 14.152609 13.806641 13.349609 L 13.806641 13.210938 C 13.806641 12.672937 14.098812 10.59375 16.257812 10.59375 z M 16.126953 11.767578 C 15.668953 11.767578 15.287109 12.210937 15.287109 12.710938 L 16.908203 12.710938 C 16.907203 12.245938 16.605953 11.767578 16.126953 11.767578 z"/></svg>